<svg xmlns="http://www.w3.org/2000/svg" width="225" height="225" viewBox="0 0 225 225">
<g>
<path d="M 86.70 158.83 C84.72,160.48 75.08,159.82 74.51,158.00 C73.79,155.69 74.27,43.18 75.01,41.99 C76.02,40.35 80.55,40.19 130.59,40.05 C178.12,39.92 183.00,40.25 183.00,43.53 C183.00,44.41 183.35,44.90 183.78,44.64 C184.21,44.37 184.52,46.16 184.46,48.61 C184.46,48.99 184.45,49.36 184.45,49.71 C184.44,51.24 184.44,52.43 183.93,53.33 C182.27,56.34 175.15,56.31 144.44,56.22 C142.34,56.21 140.13,56.21 137.81,56.20 C113.99,56.14 93.71,56.32 92.74,56.61 C91.76,56.91 91.23,57.56 91.54,58.07 C91.86,58.58 91.45,59.00 90.63,59.00 C89.81,59.00 88.93,59.79 88.68,60.75 C88.28,62.27 88.38,69.31 88.84,72.64 C88.93,73.26 90.53,74.50 92.40,75.39 C95.37,76.79 101.35,77.00 139.40,77.00 C163.38,77.00 183.06,77.34 183.14,77.75 C183.83,81.55 183.60,90.76 182.78,91.75 C181.99,92.71 172.03,93.00 139.13,92.98 C115.68,92.98 95.87,92.57 95.10,92.08 C93.62,91.15 90.84,92.90 91.66,94.25 C91.91,94.66 91.64,95.00 91.06,95.00 C90.48,95.00 89.96,94.44 89.90,93.75 C89.85,93.06 89.44,93.62 89.00,95.00 C88.56,96.38 88.15,111.06 88.10,127.63 C88.02,150.99 87.71,158.00 86.70,158.83 ZM 71.56 194.89 C63.67,194.81 56.71,195.06 56.10,195.44 C55.50,195.81 55.00,195.59 55.00,194.95 C55.00,194.31 54.30,194.05 53.45,194.38 C52.43,194.77 52.14,194.58 52.61,193.82 C53.09,193.05 52.78,192.87 51.68,193.29 C50.77,193.64 50.13,193.61 50.26,193.21 C50.39,192.82 48.97,191.03 47.10,189.25 C45.23,187.46 44.01,186.00 44.39,186.00 C44.77,186.00 44.50,185.38 43.79,184.63 C43.09,183.87 41.83,183.46 41.01,183.72 C39.88,184.07 39.82,183.96 40.76,183.28 C41.73,182.58 41.77,181.64 40.91,179.18 C40.30,177.43 39.40,176.00 38.90,176.00 C38.37,176.00 38.05,148.75 38.12,110.25 C38.18,74.09 38.44,45.28 38.69,46.23 C39.07,47.69 39.61,47.45 42.07,44.76 C43.68,43.00 44.99,41.09 44.98,40.53 C44.98,39.96 44.49,40.17 43.91,41.00 C43.07,42.19 42.93,42.21 43.23,41.08 C43.71,39.32 52.57,38.40 54.40,39.92 C55.11,40.50 55.98,40.69 56.34,40.32 C56.70,39.96 57.00,68.94 57.00,104.72 C57.00,165.51 57.12,169.92 58.77,171.97 C61.05,174.77 70.20,176.96 79.75,176.98 C83.74,176.99 87.03,177.11 87.06,177.25 C87.09,177.39 87.34,180.53 87.61,184.23 L 87.62 184.43 C87.95,188.99 88.14,191.59 86.94,193.07 C85.35,195.02 81.30,194.98 71.88,194.89 Z" fill="rgb(5,30,66)"/>
<path d="M 86.70 158.83 C87.71,158.00 88.02,150.99 88.10,127.63 C88.15,111.06 88.56,96.38 89.00,95.00 C89.44,93.62 89.85,93.06 89.90,93.75 C89.96,94.44 90.48,95.00 91.06,95.00 C91.64,95.00 91.91,94.66 91.66,94.25 C90.84,92.90 93.62,91.15 95.10,92.08 C95.87,92.57 115.68,92.98 139.13,92.98 C172.03,93.00 181.99,92.71 182.78,91.75 C183.60,90.76 183.83,81.55 183.14,77.75 C183.06,77.34 163.38,77.00 139.40,77.00 C102.46,77.00 95.75,76.81 92.67,75.51 L 139.29 75.76 L 187.07 76.02 L 186.50 94.50 L 138.76 94.76 L 91.03 95.02 L 90.76 128.26 L 90.50 161.50 L 83.29 161.79 C82.33,161.83 81.44,161.90 80.63,161.97 C78.47,162.14 76.85,162.27 75.63,161.64 C71.93,159.70 71.94,150.68 71.99,114.34 C71.99,109.85 72.00,104.94 72.00,99.57 C72.00,47.79 72.18,40.96 73.57,39.57 C74.96,38.18 81.24,38.00 127.52,38.00 C165.25,38.00 180.62,38.33 182.46,39.16 C185.67,40.63 187.25,45.64 186.82,53.00 L 186.50 58.50 L 138.71 58.76 L 90.92 59.02 L 91.21 67.26 L 91.48 74.91 C90.03,74.10 88.91,73.15 88.84,72.64 C88.38,69.31 88.28,62.27 88.68,60.75 C88.93,59.79 89.81,59.00 90.63,59.00 C91.45,59.00 91.86,58.58 91.54,58.07 C91.23,57.56 91.76,56.91 92.74,56.61 C93.71,56.32 113.99,56.14 137.81,56.20 C140.13,56.21 142.34,56.21 144.44,56.22 C175.15,56.31 182.27,56.34 183.93,53.33 C184.44,52.43 184.44,51.24 184.45,49.71 C184.45,49.36 184.46,48.99 184.46,48.61 C184.52,46.16 184.21,44.37 183.78,44.64 C183.35,44.90 183.00,44.41 183.00,43.53 C183.00,40.25 178.12,39.92 130.59,40.05 C80.55,40.19 76.02,40.35 75.01,41.99 C74.27,43.18 73.79,155.69 74.51,158.00 C75.08,159.82 84.72,160.48 86.70,158.83 ZM 71.56 194.89 L 71.88 194.89 C81.30,194.98 85.35,195.02 86.94,193.07 C88.14,191.59 87.95,188.99 87.62,184.43 L 87.61 184.23 C87.34,180.53 87.09,177.39 87.06,177.25 C87.03,177.11 83.74,176.99 79.75,176.98 C74.84,176.97 70.03,176.39 66.20,175.44 C69.01,175.84 73.31,176.06 76.98,175.95 C81.67,175.81 86.75,175.76 88.28,175.85 L 91.07 176.00 L 90.78 186.25 L 90.50 196.50 L 74.50 196.66 C65.70,196.75 56.72,196.34 54.53,195.76 C51.95,195.07 48.77,192.90 45.39,189.52 C43.03,187.16 41.64,185.54 40.71,183.81 C40.80,183.78 40.90,183.75 41.01,183.72 C41.83,183.46 43.09,183.87 43.79,184.63 C44.50,185.38 44.77,186.00 44.39,186.00 C44.01,186.00 45.23,187.46 47.10,189.25 C48.97,191.03 50.39,192.82 50.26,193.21 C50.13,193.61 50.77,193.64 51.68,193.29 C52.78,192.87 53.09,193.05 52.61,193.82 C52.14,194.58 52.43,194.77 53.45,194.38 C54.30,194.05 55.00,194.31 55.00,194.95 C55.00,195.59 55.50,195.81 56.10,195.44 C56.71,195.06 63.67,194.81 71.56,194.89 ZM 38.46 53.38 L 38.50 42.83 L 41.31 40.41 C43.64,38.40 45.19,38.00 50.56,38.00 L 57.00 38.00 L 57.00 103.78 C56.99,68.43 56.70,39.97 56.34,40.32 C55.98,40.69 55.11,40.50 54.40,39.92 C52.57,38.40 43.71,39.32 43.23,41.08 C42.93,42.21 43.07,42.19 43.91,41.00 C44.49,40.17 44.98,39.96 44.98,40.53 C44.99,41.09 43.68,43.00 42.07,44.76 C39.61,47.45 39.07,47.69 38.69,46.23 C38.61,45.94 38.53,48.55 38.46,53.38 ZM 40.52 183.45 C39.88,182.15 39.47,180.76 39.09,178.91 C38.60,176.56 38.31,167.44 38.21,149.96 C38.34,166.16 38.58,176.00 38.90,176.00 C39.40,176.00 40.30,177.43 40.91,179.18 C41.77,181.64 41.73,182.58 40.76,183.28 C40.67,183.34 40.59,183.40 40.52,183.45 ZM 59.10 172.32 C58.98,172.20 58.87,172.09 58.77,171.97 C57.73,170.68 57.30,168.46 57.12,151.84 C57.32,164.53 57.83,169.87 59.10,172.32 Z" fill="rgb(4,24,54)"/>
<path d="M 0.00 0.00 L 225.00 0.00 L 225.00 225.00 L 0.00 225.00 ZM 46.88 196.94 C49.29,200.04 51.00,200.87 51.00,198.94 C51.00,198.36 51.42,198.14 51.93,198.46 C52.44,198.77 53.14,198.58 53.49,198.02 C53.84,197.46 55.10,196.95 56.31,196.90 C57.59,196.84 57.02,196.43 54.86,195.83 C57.50,196.38 66.09,196.74 74.50,196.66 L 89.85 196.51 C89.69,196.75 89.52,196.98 89.35,197.17 C87.78,198.90 87.84,199.00 90.40,199.00 C92.28,199.00 92.90,198.62 92.41,197.75 C91.85,196.75 91.98,196.75 93.05,197.75 C93.79,198.44 95.10,198.99 95.95,198.98 C97.18,198.97 97.23,198.80 96.16,198.12 C95.43,197.66 94.93,197.10 95.06,196.89 C95.64,195.91 93.77,192.13 92.46,191.62 C91.46,191.24 91.00,191.74 91.00,193.20 C91.00,193.78 90.82,194.49 90.54,195.20 L 90.78 186.25 L 91.05 176.63 C93.65,177.07 94.13,176.63 95.00,175.00 C95.59,173.90 95.69,173.00 95.24,173.00 C94.78,173.00 94.37,171.99 94.33,170.75 C94.30,169.51 94.01,167.25 93.70,165.73 C93.38,164.21 93.52,163.20 93.99,163.50 C94.47,163.79 95.14,163.58 95.49,163.02 C95.84,162.46 95.74,162.00 95.27,162.00 C94.81,162.00 94.31,160.54 94.18,158.75 C94.04,156.96 93.52,151.49 93.01,146.58 C92.50,141.68 92.45,137.01 92.90,136.21 C93.35,135.41 93.49,127.44 93.22,118.49 C92.67,100.22 93.00,97.79 96.23,96.23 C98.32,95.22 98.20,95.13 94.75,95.07 L 91.83 95.01 L 138.76 94.76 L 185.42 94.51 C185.07,94.77 184.61,94.91 184.00,95.07 C181.85,95.63 182.05,95.78 185.50,96.12 C190.21,96.58 192.29,94.91 191.06,91.65 C190.61,90.47 190.14,89.05 190.02,88.50 C189.90,87.95 189.51,87.57 189.15,87.67 C188.01,87.96 188.54,81.59 189.84,79.22 C190.91,77.30 190.82,76.59 189.30,74.67 C188.26,73.36 186.33,72.35 184.75,72.30 C183.24,72.24 162.50,72.15 138.66,72.10 L 95.32 72.00 L 94.30 69.75 C93.12,67.16 94.31,62.97 96.58,61.70 C98.71,60.50 97.35,59.06 94.12,59.00 L 138.71 58.76 L 185.77 58.50 C185.41,58.81 184.99,59.00 184.59,59.00 C182.26,59.00 182.65,60.93 185.17,61.87 C188.89,63.24 190.00,62.80 190.00,59.96 C190.00,56.39 187.47,54.10 186.72,56.98 C186.68,57.13 186.63,57.28 186.56,57.42 L 186.82 53.00 C187.20,46.49 186.01,41.83 183.52,39.82 C184.51,40.17 184.70,39.58 184.28,37.97 C183.51,35.02 180.48,33.28 177.02,33.78 C174.88,34.10 174.00,34.78 174.00,36.11 C174.00,37.57 174.74,38.00 177.25,38.02 C179.04,38.02 181.18,38.47 182.00,39.00 C182.02,39.01 182.04,39.02 182.06,39.04 C178.94,38.29 163.26,38.00 127.52,38.00 C84.37,38.00 75.99,38.16 73.93,39.31 C74.24,38.78 74.61,38.46 75.03,38.27 C75.73,37.94 76.58,37.96 77.63,37.99 C77.93,37.99 78.24,38.00 78.57,38.00 C81.27,38.00 82.00,37.60 82.00,36.11 C82.00,35.07 81.26,33.93 80.37,33.59 C78.13,32.73 72.00,33.97 72.00,35.28 C72.00,35.87 71.29,37.13 70.41,38.10 C69.00,39.66 68.84,46.36 68.95,100.16 C69.06,151.88 69.29,160.58 70.54,161.28 C71.34,161.73 72.00,163.00 72.00,164.11 C72.00,165.21 72.45,165.84 73.00,165.50 C73.55,165.16 74.00,165.36 74.00,165.94 C74.00,166.52 73.01,167.00 71.81,167.00 C69.67,167.00 69.66,167.03 71.56,168.47 C72.63,169.28 74.62,169.96 76.00,169.98 C78.60,170.03 81.23,171.26 81.09,172.36 C80.76,174.80 81.18,175.87 82.29,175.44 C82.98,175.18 85.19,175.35 87.30,175.82 C85.15,175.78 80.92,175.83 76.98,175.95 C74.38,176.02 71.47,175.94 69.00,175.74 C69.77,175.45 70.00,174.69 70.00,173.39 C70.00,171.69 69.56,170.96 68.72,171.28 C68.02,171.55 66.16,170.74 64.58,169.48 C62.47,167.80 61.50,165.92 60.92,162.35 C60.48,159.68 60.09,132.07 60.06,100.99 C60.00,46.79 60.08,44.32 61.95,40.83 L 63.90 37.19 L 61.45 34.54 C58.97,31.87 58.13,31.90 54.75,34.81 C52.44,36.79 52.53,38.00 55.00,38.00 L 50.56 38.00 C47.77,38.00 46.01,38.11 44.64,38.49 C45.67,38.16 46.80,38.00 48.06,38.00 C52.00,38.00 52.88,36.93 51.16,34.22 C50.08,32.53 44.00,31.76 43.98,33.32 C43.97,34.19 43.78,34.20 43.23,33.36 C42.39,32.05 40.69,33.56 40.22,36.04 C39.70,38.76 37.70,41.93 36.84,41.40 C36.37,41.11 35.68,41.69 35.32,42.69 C34.95,43.68 34.16,44.82 33.57,45.22 C32.82,45.72 32.88,46.55 33.75,47.96 C34.72,49.52 35.00,64.80 35.00,115.42 C35.00,167.92 35.26,181.12 36.31,182.18 C37.81,183.70 38.97,186.42 39.65,189.98 C40.21,192.94 40.54,193.32 42.78,193.63 C43.73,193.77 45.57,195.26 46.88,196.94 ZM 105.00 206.05 C105.00,207.47 105.69,208.00 107.53,208.00 C110.58,208.00 111.74,205.63 109.86,203.24 C108.63,201.67 108.67,201.63 110.25,202.87 C111.76,204.06 112.00,204.02 112.00,202.62 C112.00,201.22 113.27,200.47 114.35,201.25 C114.54,201.39 115.35,200.95 116.16,200.28 C117.34,199.31 118.07,199.36 119.78,200.56 C121.54,201.79 121.76,202.51 120.99,204.53 C120.25,206.48 120.37,207.00 121.56,207.00 C123.19,207.00 125.01,203.22 124.29,201.33 C124.05,200.68 124.78,199.65 125.92,199.04 C127.84,198.01 128.00,197.05 128.00,186.43 C128.00,174.94 128.00,174.93 131.03,171.97 C134.43,168.64 135.20,168.30 134.36,170.49 C134.05,171.32 133.28,171.68 132.65,171.30 C132.02,170.92 132.12,171.38 132.87,172.31 C133.63,173.24 133.85,174.03 133.37,174.07 C132.89,174.11 133.40,174.51 134.50,174.97 C137.72,176.31 154.31,175.09 155.61,173.43 C156.22,172.64 157.23,172.00 157.86,172.00 C159.02,172.00 159.17,171.55 159.51,166.83 C159.68,164.42 161.98,161.00 163.43,161.00 C164.81,161.00 163.94,174.65 162.42,176.81 C161.14,178.64 160.97,180.54 161.55,186.79 C162.19,193.74 162.58,194.82 165.53,197.71 C168.70,200.80 168.75,200.98 167.05,202.94 C166.09,204.05 164.93,204.63 164.49,204.23 C164.04,203.83 164.02,204.08 164.43,204.80 C164.98,205.76 165.53,205.81 166.50,205.00 C167.23,204.39 169.09,203.67 170.63,203.39 C172.18,203.11 173.97,202.44 174.63,201.89 C175.43,201.23 176.07,201.30 176.57,202.11 C177.04,202.87 176.89,203.05 176.15,202.60 C175.52,202.20 175.00,202.34 175.00,202.91 C175.00,203.47 175.87,204.40 176.93,204.96 C179.35,206.26 180.29,206.29 179.52,205.04 C178.75,203.79 182.54,200.00 184.56,200.00 C185.42,200.00 185.86,200.41 185.55,200.92 C184.96,201.88 187.55,205.00 188.95,205.00 C191.11,205.00 191.71,202.28 190.73,197.00 C189.17,188.57 188.61,117.35 190.07,112.85 C191.86,107.32 190.55,100.57 187.40,99.13 C185.91,98.46 185.13,98.40 185.50,98.99 C185.84,99.55 185.19,100.00 184.06,100.00 C182.93,100.00 182.00,100.50 182.00,101.11 C182.00,101.72 181.32,101.95 180.50,101.64 C179.68,101.32 179.00,101.50 179.00,102.03 C179.00,102.56 177.99,102.99 176.75,102.97 C174.73,102.94 174.68,102.83 176.26,101.91 C177.73,101.06 177.81,100.66 176.69,99.55 C174.69,97.55 171.71,97.28 169.77,98.94 C168.47,100.04 168.35,100.60 169.27,101.19 C170.18,101.76 170.10,101.98 169.00,102.00 C167.67,102.03 167.67,102.14 169.00,103.00 C170.07,103.69 169.01,103.97 165.25,103.98 C159.89,104.00 159.61,104.25 159.94,108.55 C160.02,109.68 159.17,111.44 158.05,112.46 C156.90,113.49 156.00,113.80 156.00,113.15 C156.00,111.32 150.60,111.82 148.89,113.82 C146.49,116.62 146.98,119.10 150.15,120.20 C152.45,121.00 152.79,121.52 152.02,122.96 C151.50,123.94 151.35,125.02 151.70,125.37 C152.05,125.72 151.92,126.02 151.42,126.05 C150.91,126.08 148.53,126.27 146.12,126.48 C142.87,126.76 142.04,126.56 142.87,125.73 C144.38,124.22 144.31,120.31 142.75,119.35 C142.06,118.92 140.60,118.56 139.50,118.54 C137.89,118.51 137.57,117.94 137.84,115.64 C138.02,114.06 137.79,113.01 137.33,113.30 C136.17,114.01 133.88,112.14 131.15,108.26 C128.36,104.28 125.12,103.38 114.63,103.65 C104.10,103.93 101.96,104.32 100.92,106.18 C100.01,107.80 101.84,114.00 103.22,114.00 C103.65,114.00 104.00,130.92 104.00,151.61 L 104.00 189.21 L 101.46 192.23 C99.17,194.95 99.06,195.46 100.33,197.37 C101.11,198.54 102.75,199.55 103.98,199.62 C106.83,199.77 108.45,202.17 106.45,203.29 C105.65,203.73 105.00,204.98 105.00,206.05 ZM 89.72 161.53 C89.58,161.71 89.42,161.83 89.25,161.93 C87.72,162.83 87.69,163.09 89.00,163.97 C90.33,164.86 90.33,164.97 89.00,165.00 C87.67,165.03 87.67,165.14 89.00,166.03 C90.05,166.72 88.21,166.98 82.81,166.88 C76.58,166.76 75.37,166.49 76.40,165.46 C77.10,164.76 78.76,164.00 80.09,163.78 C82.11,163.45 81.82,163.19 78.27,162.16 C78.22,162.14 78.16,162.13 78.11,162.11 C78.86,162.11 79.69,162.04 80.63,161.97 C81.44,161.90 82.33,161.83 83.29,161.79 ZM 187.00 48.53 C187.00,50.26 187.42,50.77 188.50,50.36 C190.30,49.67 190.43,47.03 188.84,43.55 C187.24,40.04 184.69,40.05 186.02,43.57 C186.56,44.98 187.00,47.21 187.00,48.53 ZM 105.38 97.25 C107.54,99.40 108.39,99.44 110.02,97.48 C111.72,95.43 110.85,94.79 106.91,95.18 C103.77,95.49 103.70,95.58 105.38,97.25 ZM 91.00 98.42 L 91.00 127.95 C91.00,146.74 90.95,154.93 90.52,158.66 L 90.76 128.26 ZM 175.50 60.00 C176.27,61.24 177.08,61.24 179.00,60.00 C180.16,59.25 179.87,59.03 177.69,59.02 C176.07,59.01 175.14,59.42 175.50,60.00 ZM 89.00 171.00 C89.00,171.55 88.30,172.00 87.44,172.00 C86.58,172.00 86.16,171.55 86.50,171.00 C86.84,170.45 87.54,170.00 88.06,170.00 C88.58,170.00 89.00,170.45 89.00,171.00 ZM 74.21 160.23 C73.64,159.82 73.22,159.40 73.02,159.03 C72.81,158.65 72.64,156.30 72.49,152.12 C72.82,156.31 73.35,158.79 74.21,160.23 ZM 57.28 158.69 C57.21,156.68 57.16,154.41 57.12,151.84 C57.11,151.23 57.11,150.59 57.10,149.94 C57.14,153.31 57.20,156.20 57.28,158.69 ZM 90.92 59.02 L 91.48 74.91 L 91.21 67.26 L 90.92 59.02 Z" fill="rgb(254,254,254)"/>
<path d="M 124.81 192.75 L 124.50 196.50 L 115.95 196.79 C111.25,196.94 107.09,196.76 106.70,196.37 C106.32,195.98 106.00,175.94 106.00,151.83 L 106.00 108.00 L 126.81 108.00 L 129.54 112.75 C131.04,115.36 133.14,118.96 134.21,120.75 C135.29,122.54 135.72,124.00 135.18,124.00 C134.28,124.00 131.42,120.04 128.19,114.30 C125.77,110.00 122.60,108.73 115.43,109.19 C111.16,109.46 108.54,110.11 107.95,111.05 C107.43,111.87 107.02,130.13 107.02,152.77 L 107.00 193.05 L 109.57 194.02 C110.98,194.56 114.36,195.00 117.09,195.00 C121.80,195.00 122.08,194.85 122.65,192.00 C123.51,187.71 125.18,188.29 124.81,192.75 ZM 158.92 159.00 L 151.74 171.00 L 141.27 171.00 L 134.41 159.38 C130.64,152.99 126.98,147.55 126.28,147.28 C124.85,146.73 124.51,144.00 125.88,144.00 C127.18,144.00 128.39,145.75 132.47,153.50 C134.50,157.35 137.02,161.43 138.08,162.56 C139.13,163.70 140.00,165.11 140.00,165.69 C140.00,167.94 142.80,169.06 146.85,168.41 C150.50,167.82 151.19,167.23 153.60,162.63 C155.07,159.81 157.56,155.93 159.14,154.02 C160.71,152.11 162.00,150.05 162.00,149.45 C162.00,148.27 166.17,144.00 167.31,144.00 C167.69,144.00 168.00,144.68 168.00,145.50 C168.00,146.32 167.57,147.00 167.05,147.00 C166.52,147.00 162.86,152.40 158.92,159.00 ZM 161.16 120.00 C150.13,137.16 150.27,135.70 161.50,116.25 C165.04,110.14 166.80,108.00 168.33,108.00 C170.14,108.00 170.20,108.15 168.82,109.25 C167.96,109.94 164.51,114.78 161.16,120.00 Z" fill="rgb(194,44,36)"/>
<path d="M 161.16 120.00 C164.51,114.78 167.96,109.94 168.82,109.25 C169.98,108.32 170.12,108.07 169.04,108.01 L 175.86 108.22 L 185.48 108.50 L 186.12 111.50 C186.96,115.41 186.96,188.59 186.12,192.50 C185.49,195.49 185.47,195.50 177.58,195.79 C171.94,196.01 169.43,195.72 168.83,194.79 C168.37,194.08 168.01,184.27 168.03,173.00 C168.03,171.85 168.04,170.76 168.04,169.71 C168.08,149.43 168.09,147.22 167.44,147.01 C167.37,146.99 167.28,146.99 167.18,147.00 C167.14,147.00 167.09,147.00 167.05,147.00 C167.57,147.00 168.00,146.32 168.00,145.50 C168.00,144.68 167.69,144.00 167.31,144.00 C166.17,144.00 162.00,148.27 162.00,149.45 C162.00,150.05 160.71,152.11 159.14,154.02 C157.56,155.93 155.07,159.81 153.60,162.63 C151.19,167.23 150.50,167.82 146.85,168.41 C142.80,169.06 140.00,167.94 140.00,165.69 C140.00,165.11 139.13,163.70 138.08,162.56 C137.02,161.43 134.50,157.35 132.47,153.50 C128.39,145.75 127.18,144.00 125.88,144.00 C124.62,144.00 124.80,146.31 125.95,147.10 C125.70,147.07 125.48,147.19 125.26,147.40 C124.93,147.73 124.63,158.92 124.58,172.25 L 124.52 189.44 C124.05,188.53 123.19,189.30 122.65,192.00 C122.08,194.85 121.80,195.00 117.09,195.00 C114.36,195.00 110.98,194.56 109.57,194.02 L 107.00 193.05 L 107.02 152.77 C107.02,130.13 107.43,111.87 107.95,111.05 C108.54,110.11 111.16,109.46 115.43,109.19 C122.60,108.73 125.77,110.00 128.19,114.30 C131.42,120.04 134.28,124.00 135.18,124.00 C135.36,124.00 135.43,123.84 135.41,123.55 C136.10,124.87 136.79,126.20 137.46,127.50 C140.58,133.55 143.81,139.18 144.63,140.00 C145.97,141.33 146.36,141.22 148.15,139.00 C148.94,138.02 151.48,133.86 154.49,128.69 C151.14,134.96 153.36,132.13 161.16,120.00 ZM 168.65 108.00 C168.55,108.00 168.44,108.00 168.33,108.00 C166.96,108.00 165.40,109.72 162.54,114.49 L 166.23 107.93 ZM 130.92 115.14 C130.43,114.31 129.96,113.49 129.54,112.75 L 126.81 108.00 L 129.30 112.25 C129.68,112.90 130.24,113.90 130.92,115.14 Z" fill="rgb(216,40,26)"/>
<path d="M 105.00 206.05 C105.00,204.98 105.65,203.73 106.45,203.29 C108.45,202.17 106.83,199.77 103.98,199.62 C102.75,199.55 101.11,198.54 100.33,197.37 C99.06,195.46 99.17,194.95 101.46,192.23 L 104.00 189.21 L 104.00 151.61 C104.00,130.92 103.65,114.00 103.22,114.00 C101.84,114.00 100.01,107.80 100.92,106.18 C101.96,104.32 104.10,103.93 114.63,103.65 C125.12,103.38 128.36,104.28 131.15,108.26 C133.88,112.14 136.17,114.01 137.33,113.30 C137.79,113.01 138.02,114.06 137.84,115.64 C137.57,117.94 137.89,118.51 139.50,118.54 C140.60,118.56 142.06,118.92 142.75,119.35 C144.31,120.31 144.38,124.22 142.87,125.73 C142.04,126.56 142.87,126.76 146.12,126.48 C148.53,126.27 150.91,126.08 151.42,126.05 C151.92,126.02 152.05,125.72 151.70,125.37 C151.35,125.02 151.50,123.94 152.02,122.96 C152.79,121.52 152.45,121.00 150.15,120.20 C146.98,119.10 146.49,116.62 148.89,113.82 C150.60,111.82 156.00,111.32 156.00,113.15 C156.00,113.80 156.90,113.49 158.05,112.46 C159.17,111.44 160.02,109.68 159.94,108.55 C159.61,104.25 159.89,104.00 165.25,103.98 C169.01,103.97 170.07,103.69 169.00,103.00 C167.67,102.14 167.67,102.03 169.00,102.00 C170.10,101.98 170.18,101.76 169.27,101.19 C168.35,100.60 168.47,100.04 169.77,98.94 C171.71,97.28 174.69,97.55 176.69,99.55 C177.81,100.66 177.73,101.06 176.26,101.91 C174.68,102.83 174.73,102.94 176.75,102.97 C177.99,102.99 179.00,102.56 179.00,102.03 C179.00,101.50 179.68,101.32 180.50,101.64 C181.32,101.95 182.00,101.72 182.00,101.11 C182.00,100.50 182.93,100.00 184.06,100.00 C185.19,100.00 185.84,99.55 185.50,98.99 C185.13,98.40 185.91,98.46 187.40,99.13 C190.55,100.57 191.86,107.32 190.07,112.85 C188.61,117.35 189.17,188.57 190.73,197.00 C191.71,202.28 191.11,205.00 188.95,205.00 C187.55,205.00 184.96,201.88 185.55,200.92 C185.86,200.41 185.42,200.00 184.56,200.00 C182.54,200.00 178.75,203.79 179.52,205.04 C180.29,206.29 179.35,206.26 176.93,204.96 C175.87,204.40 175.00,203.47 175.00,202.91 C175.00,202.34 175.52,202.20 176.15,202.60 C176.89,203.05 177.04,202.87 176.57,202.11 C176.07,201.30 175.43,201.23 174.63,201.89 C173.97,202.44 172.18,203.11 170.63,203.39 C169.09,203.67 167.23,204.39 166.50,205.00 C165.53,205.81 164.98,205.76 164.43,204.80 C164.02,204.08 164.04,203.83 164.49,204.23 C164.93,204.63 166.09,204.05 167.05,202.94 C168.75,200.98 168.70,200.80 165.53,197.71 C162.58,194.82 162.19,193.74 161.55,186.79 C160.97,180.54 161.14,178.64 162.42,176.81 C163.94,174.65 164.81,161.00 163.43,161.00 C161.98,161.00 159.68,164.42 159.51,166.83 C159.17,171.55 159.02,172.00 157.86,172.00 C157.23,172.00 156.22,172.64 155.61,173.43 C154.31,175.09 137.72,176.31 134.50,174.97 C133.40,174.51 132.89,174.11 133.37,174.07 C133.85,174.03 133.63,173.24 132.87,172.31 C132.12,171.38 132.02,170.92 132.65,171.30 C133.28,171.68 134.05,171.32 134.36,170.49 C135.20,168.30 134.43,168.64 131.03,171.97 C128.00,174.93 128.00,174.94 128.00,186.43 C128.00,197.05 127.84,198.01 125.92,199.04 C124.78,199.65 124.05,200.68 124.29,201.33 C125.01,203.22 123.19,207.00 121.56,207.00 C120.37,207.00 120.25,206.48 120.99,204.53 C121.76,202.51 121.54,201.79 119.78,200.56 C118.07,199.36 117.34,199.31 116.16,200.28 C115.35,200.95 114.54,201.39 114.35,201.25 C113.27,200.47 112.00,201.22 112.00,202.62 C112.00,204.02 111.76,204.06 110.25,202.87 C108.67,201.63 108.63,201.67 109.86,203.24 C111.74,205.63 110.58,208.00 107.53,208.00 C105.69,208.00 105.00,207.47 105.00,206.05 ZM 124.58 172.25 C124.63,158.92 124.93,147.73 125.26,147.40 C126.39,146.27 127.62,147.88 134.44,159.44 L 141.27 171.00 L 146.50 171.00 L 151.74 171.00 L 158.92 159.00 C162.86,152.40 166.52,147.00 167.05,147.00 C168.13,147.00 168.09,145.81 168.03,173.00 C168.01,184.27 168.37,194.08 168.83,194.79 C169.43,195.72 171.94,196.01 177.58,195.79 C185.47,195.50 185.49,195.49 186.12,192.50 C186.96,188.59 186.96,115.41 186.12,111.50 L 185.48 108.50 L 175.86 108.22 L 166.23 107.93 L 158.19 122.22 C153.77,130.07 149.25,137.62 148.15,139.00 C146.36,141.22 145.97,141.33 144.63,140.00 C143.81,139.18 140.58,133.55 137.46,127.50 C134.34,121.45 130.67,114.59 129.30,112.25 L 126.81 108.00 L 116.40 108.00 L 106.00 108.00 L 106.00 151.83 C106.00,175.94 106.32,195.98 106.70,196.37 C107.09,196.76 111.25,196.94 115.95,196.79 L 124.50 196.50 L 124.58 172.25 ZM 46.88 196.94 C45.57,195.26 43.73,193.77 42.78,193.63 C40.54,193.32 40.21,192.94 39.65,189.98 C38.97,186.42 37.81,183.70 36.31,182.18 C35.26,181.12 35.00,167.92 35.00,115.42 C35.00,64.80 34.72,49.52 33.75,47.96 C32.88,46.55 32.82,45.72 33.57,45.22 C34.16,44.82 34.95,43.68 35.32,42.69 C35.68,41.69 36.37,41.11 36.84,41.40 C37.70,41.93 39.70,38.76 40.22,36.04 C40.69,33.56 42.39,32.05 43.23,33.36 C43.78,34.20 43.97,34.19 43.98,33.32 C44.00,31.76 50.08,32.53 51.16,34.22 C52.88,36.93 52.00,38.00 48.06,38.00 C45.33,38.00 43.25,38.74 41.31,40.41 L 38.50 42.83 L 38.23 108.15 C38.04,153.76 38.30,175.12 39.09,178.91 C40.02,183.41 41.11,185.24 45.39,189.52 C48.78,192.91 51.94,195.06 54.53,195.75 C56.96,196.39 57.65,196.83 56.31,196.90 C55.10,196.95 53.84,197.46 53.49,198.02 C53.14,198.58 52.44,198.77 51.93,198.46 C51.42,198.14 51.00,198.36 51.00,198.94 C51.00,200.87 49.29,200.04 46.88,196.94 ZM 89.35 197.17 C90.26,196.17 91.00,194.38 91.00,193.20 C91.00,191.74 91.46,191.24 92.46,191.62 C93.77,192.13 95.64,195.91 95.06,196.89 C94.93,197.10 95.43,197.66 96.16,198.12 C97.23,198.80 97.18,198.97 95.95,198.98 C95.10,198.99 93.79,198.44 93.05,197.75 C91.98,196.75 91.85,196.75 92.41,197.75 C92.90,198.62 92.28,199.00 90.40,199.00 C87.84,199.00 87.78,198.90 89.35,197.17 ZM 87.54 175.87 C85.37,175.36 83.00,175.17 82.29,175.44 C81.18,175.87 80.76,174.80 81.09,172.36 C81.23,171.26 78.60,170.03 76.00,169.98 C74.62,169.96 72.63,169.28 71.56,168.47 C69.66,167.03 69.67,167.00 71.81,167.00 C73.01,167.00 74.00,166.52 74.00,165.94 C74.00,165.36 73.55,165.16 73.00,165.50 C72.45,165.84 72.00,165.21 72.00,164.11 C72.00,163.00 71.34,161.73 70.54,161.28 C69.29,160.58 69.06,151.88 68.95,100.16 C68.84,46.36 69.00,39.66 70.41,38.10 C71.29,37.13 72.00,35.87 72.00,35.28 C72.00,33.97 78.13,32.73 80.37,33.59 C81.26,33.93 82.00,35.07 82.00,36.11 C82.00,37.60 81.27,38.00 78.57,38.00 C71.66,38.00 72.00,34.80 72.00,99.14 C72.00,136.53 72.36,157.81 73.02,159.03 C73.58,160.08 75.94,161.48 78.27,162.16 C81.82,163.19 82.11,163.45 80.09,163.78 C78.76,164.00 77.10,164.76 76.40,165.46 C75.37,166.49 76.58,166.76 82.81,166.88 C88.21,166.98 90.05,166.72 89.00,166.03 C87.67,165.14 87.67,165.03 89.00,165.00 C90.33,164.97 90.33,164.86 89.00,163.97 C87.69,163.09 87.72,162.83 89.25,161.93 C90.86,160.98 91.00,158.27 91.00,127.95 L 91.00 95.00 L 94.75 95.07 C98.20,95.13 98.32,95.22 96.23,96.23 C93.00,97.79 92.67,100.22 93.22,118.49 C93.49,127.44 93.35,135.41 92.90,136.21 C92.45,137.01 92.50,141.68 93.01,146.58 C93.52,151.49 94.04,156.96 94.18,158.75 C94.31,160.54 94.81,162.00 95.27,162.00 C95.74,162.00 95.84,162.46 95.49,163.02 C95.14,163.58 94.47,163.79 93.99,163.50 C93.52,163.20 93.38,164.21 93.70,165.73 C94.01,167.25 94.30,169.51 94.33,170.75 C94.37,171.99 94.78,173.00 95.24,173.00 C95.69,173.00 95.59,173.90 95.00,175.00 C93.83,177.19 93.38,177.24 87.54,175.87 ZM 89.00 171.00 C89.00,170.45 88.58,170.00 88.06,170.00 C87.54,170.00 86.84,170.45 86.50,171.00 C86.16,171.55 86.58,172.00 87.44,172.00 C88.30,172.00 89.00,171.55 89.00,171.00 ZM 63.29 174.89 C56.70,172.99 57.00,176.39 57.00,103.78 C57.00,38.67 56.98,38.00 55.00,38.00 C52.53,38.00 52.44,36.79 54.75,34.81 C58.13,31.90 58.97,31.87 61.45,34.54 L 63.90 37.19 L 61.95 40.83 C60.08,44.32 60.00,46.79 60.06,100.99 C60.09,132.07 60.48,159.68 60.92,162.35 C61.50,165.92 62.47,167.80 64.58,169.48 C66.16,170.74 68.02,171.55 68.72,171.28 C69.56,170.96 70.00,171.69 70.00,173.39 C70.00,176.25 68.86,176.50 63.29,174.89 ZM 105.38 97.25 C103.70,95.58 103.77,95.49 106.91,95.18 C110.85,94.79 111.72,95.43 110.02,97.48 C108.39,99.44 107.54,99.40 105.38,97.25 ZM 185.50 96.12 C182.05,95.78 181.85,95.63 184.00,95.07 C186.41,94.44 186.51,94.08 186.79,85.22 L 187.07 76.02 L 139.29 75.76 L 91.50 75.50 L 91.21 67.25 L 90.92 59.00 L 93.90 59.00 C97.29,59.00 98.76,60.48 96.58,61.70 C94.31,62.97 93.12,67.16 94.30,69.75 L 95.32 72.00 L 138.66 72.10 C162.50,72.15 183.24,72.24 184.75,72.30 C186.33,72.35 188.26,73.36 189.30,74.67 C190.82,76.59 190.91,77.30 189.84,79.22 C188.54,81.59 188.01,87.96 189.15,87.67 C189.51,87.57 189.90,87.95 190.02,88.50 C190.14,89.05 190.61,90.47 191.06,91.65 C192.29,94.91 190.21,96.58 185.50,96.12 ZM 185.17 61.87 C182.65,60.93 182.26,59.00 184.59,59.00 C185.47,59.00 186.43,58.09 186.72,56.98 C187.47,54.10 190.00,56.39 190.00,59.96 C190.00,62.80 188.89,63.24 185.17,61.87 ZM 175.50 60.00 C175.14,59.42 176.07,59.01 177.69,59.02 C179.87,59.03 180.16,59.25 179.00,60.00 C177.08,61.24 176.27,61.24 175.50,60.00 ZM 187.00 48.53 C187.00,47.21 186.56,44.98 186.02,43.57 C184.69,40.05 187.24,40.04 188.84,43.55 C190.43,47.03 190.30,49.67 188.50,50.36 C187.42,50.77 187.00,50.26 187.00,48.53 ZM 182.00 39.00 C181.18,38.47 179.04,38.02 177.25,38.02 C174.74,38.00 174.00,37.57 174.00,36.11 C174.00,34.78 174.88,34.10 177.02,33.78 C180.48,33.28 183.51,35.02 184.28,37.97 C184.87,40.20 184.28,40.47 182.00,39.00 Z" fill="rgb(250,251,251)"/>
</g>
</svg>